<?xml version="1.0" standalone="no"?>
<!DOCTYPE svg PUBLIC "-//W3C//DTD SVG 20010904//EN"
 "http://www.w3.org/TR/2001/REC-SVG-20010904/DTD/svg10.dtd">
<svg version="1.0" xmlns="http://www.w3.org/2000/svg"
 width="22.000000pt" height="21.000000pt" viewBox="0 0 22.000000 21.000000"
 preserveAspectRatio="xMidYMid meet">
<metadata>
Created by potrace 1.15, written by Peter Selinger 2001-2017
</metadata>
<g transform="translate(0.000000,21.000000) scale(0.100000,-0.100000)"
fill="#000000" stroke="none">
<path d="M115 183 c-22 -16 -46 -33 -52 -40 -7 -6 -22 -15 -33 -18 -11 -3 -20
-9 -20 -13 0 -4 36 -31 78 -59 72 -48 132 -68 132 -44 0 5 -29 28 -65 52 -35
24 -65 46 -65 49 0 3 29 23 65 45 35 22 64 43 65 48 1 18 -68 5 -105 -20z"/>
</g>
</svg>
